<svg xmlns="http://www.w3.org/2000/svg" viewBox="0 0 1920 1080"><defs><style>.cls-1,.cls-2{fill:none;}.cls-2{stroke:#000;stroke-miterlimit:10;stroke-width:1.5px;}</style></defs><title>screen_size_control2</title><g id="레이어_2" data-name="레이어 2"><rect class="cls-1" width="1920" height="1080"/></g><g id="레이어_1" data-name="레이어 1"><path class="cls-2" d="M819.67,508.33c5,9.9,13.45,17.56,21.7,25l28,25.22c18.37,16.54,36.75,33.08,55.34,49.38q36.3,31.82,73.67,62.39a40.67,40.67,0,0,0,9.34,6.3c7.85,3.42,17.2,1.61,24.63-2.64s13.34-10.68,19.12-17l36.23-39.62c7.34-8,15-16.73,16.6-27.48,1.67-11.34-3.94-22.67-11.63-31.17s-16.4-14.8-24.24-23.16c-17-18-39.32-35.64-63.68-56.54-10.88-9.34-21.95-18.49-32.5-28.2-6.85-6.32-13.37-10.94-19.82-17.66-6.29-6.55-15.43-12.22-22.55-17.86-6.11-4.85-12.34-9.76-19.56-12.7s-15.73-3.7-22.7-.2c-4.77,2.38-8.41,6.5-11.92,10.51l-45.33,51.82C819.85,476.76,808.61,491.74,819.67,508.33Z" transform="translate(-0.16 0.06)"/><path class="cls-2" d="M1016.5,414.5a62,62,0,0,1,62,62" transform="translate(-0.16 0.06)"/><path class="cls-2" d="M893.65,655.84a62,62,0,0,1-62-62" transform="translate(-0.16 0.06)"/><path class="cls-2" d="M890.26,650.66q1.72,2.49,3.68,4.82c-1.28,1.46-2.73,3.48-4,5" transform="translate(-0.16 0.06)"/><path class="cls-2" d="M1018.16,419.71c-.48-2-1-3.91-1.7-5.82,1.72-.91,3.81-2.27,5.49-3.23" transform="translate(-0.16 0.06)"/></g><g id="레이어_5_사본" data-name="레이어 5 사본"><path d="M763.12,287.4a70.35,70.35,0,0,0,13.7-1l.22,1.47a72.92,72.92,0,0,1-13.92,1.06h-2.2V270.48h13.24V272H762.61V287.4Zm19-19.71v28.45h-1.7V267.69Z" transform="translate(-0.16 0.06)"/><path d="M801,270.16h1.66v19H789.75v-19h1.7V278H801Zm0,9.27h-9.53v8.26H801Zm14.08,1.32h-5v15.36h-1.7V267.69h1.7v11.52h5Z" transform="translate(-0.16 0.06)"/><path d="M833.2,279.75c0,6-2.91,9.76-7,9.76s-7.07-3.8-7.07-9.76S822,270,826.16,270,833.2,273.83,833.2,279.75Zm-12.48,0c0,4.87,2.24,8.29,5.44,8.29s5.41-3.42,5.41-8.29-2.24-8.25-5.41-8.25S820.72,274.89,820.72,279.75ZM841,267.69v28.42h-1.7V267.69Z" transform="translate(-0.16 0.06)"/><path d="M873.11,290.6V292H847.32V290.6Zm-2.34-6.72c-3.74-1-8.89-4.13-10.65-8.57-1.76,4.44-6.85,7.58-10.63,8.57l-.8-1.44c4.07-.83,10.53-5.05,10.53-10.33v-2.27H861v2.27c0,5.24,6.56,9.53,10.59,10.33Z" transform="translate(-0.16 0.06)"/><path d="M902.55,281.16v1.35H876.72v-1.35Zm-20.9,13.12h18.56v1.35H880v-5.92h17.57v-3H879.92v-1.31h19.3V291H881.65ZM897.46,270H880.08v-1.32h19v5.44H881.81v3.07h17.82v1.32H880.15v-5.63h17.31Z" transform="translate(-0.16 0.06)"/><path d="M929.59,270.83c0,7.74-4,15.07-13,19.58l-1-1.34c7.68-3.81,11.88-9.89,12.32-16.8H916.79v-1.44Zm12.12,10.24h-4.92v15h-1.7V267.69h1.7v11.9h4.92Z" transform="translate(-0.16 0.06)"/><path d="M970.42,290.92v1.47H944.6v-1.47h12v-6H948v-8.32h17.37v-5.25H947.89V270H967V278H949.65v5.47H967.7v1.44h-9.41v6Z" transform="translate(-0.16 0.06)"/><path d="M999.86,290.92v1.47H974v-1.47h12v-6h-8.61v-8.32H994.8v-5.25H977.33V270h19.14V278H979.09v5.47h18v1.44h-9.41v6Z" transform="translate(-0.16 0.06)"/><path d="M1038.23,290.79v1.44h-25.76v-1.44h12v-7.26h1.7v7.26ZM1013.84,283c4-.74,10.63-4.74,10.63-9.63V272h-9.89v-1.44h21.5V272h-9.88v1.41c0,4.89,6.62,8.83,10.68,9.53l-.73,1.38c-3.81-.87-9.06-3.81-10.82-8-1.73,4.22-6.94,7.2-10.72,8.06Z" transform="translate(-0.16 0.06)"/><path d="M1057.56,283.37a12.21,12.21,0,0,1-7.08-6.91,12.82,12.82,0,0,1-7.42,7.77l-.86-1.37c3.93-1.51,7.39-5.34,7.39-9.66v-1.8h-6.79V270h15.11v1.44h-6.66v1.76c0,3.88,3.3,7.46,7.17,8.87Zm7.61,7.49c0,3.33-3.55,5.18-9.31,5.18s-9.31-1.85-9.31-5.18,3.52-5.19,9.31-5.19S1065.17,287.53,1065.17,290.86Zm-1.66,0c0-2.37-3-3.81-7.65-3.81s-7.62,1.44-7.62,3.81,3,3.81,7.62,3.81S1063.51,293.23,1063.51,290.86Zm-.16-15.49v-7.68H1065v16.93h-1.69v-7.81H1057v-1.44Z" transform="translate(-0.16 0.06)"/><path d="M1079.32,272.91h6.36v1.44h-14.4v-1.44h6.34v-4.35h1.7Zm5.18,10c0,3.75-2.53,6.34-6,6.34s-6-2.59-6-6.34a6,6,0,1,1,12.06,0Zm-1.54,0a4.51,4.51,0,1,0-4.51,4.87A4.59,4.59,0,0,0,1083,282.92Zm12.23-15.23v28.42h-1.67V281.35H1089V294.6h-1.66V268.4H1089v11.51h4.51V267.69Z" transform="translate(-0.16 0.06)"/><path d="M1126.45,285.58h-12V296h-1.7V285.58h-12v-1.41h25.72Zm-24-5.67c4.23-.7,10.24-4,10.24-8.22v-.64h-9.44v-1.44h20.67v1.44h-9.41v.64c0,4.26,6,7.52,10.24,8.22l-.67,1.41c-3.93-.8-8.83-3.32-10.46-7-1.66,3.69-6.56,6.21-10.5,7Z" transform="translate(-0.16 0.06)"/><path d="M1138.2,276.27a14.14,14.14,0,0,0,6.39,11.52l-1.08,1.31a15,15,0,0,1-6.08-8.71,15.46,15.46,0,0,1-6.31,9.32l-1.12-1.28c3.75-2.15,6.6-7.24,6.6-12.13v-5.82h1.6Zm8.57-7.87h1.63v26.2h-1.63V279.69h-5.34v-1.44h5.34Zm7.46-.71v28.42h-1.64V267.69Z" transform="translate(-0.16 0.06)"/><path d="M1185.43,290.83v1.44h-25.79v-1.44h6.72v-8.16a6.47,6.47,0,0,1-4-5.83c0-4.35,4.23-7.1,10.15-7.1s10.17,2.75,10.17,7.1c0,2.53-1.5,4.55-4,5.79v8.2Zm-13-8.29c4.93,0,8.57-2.34,8.57-5.7s-3.64-5.72-8.57-5.72-8.55,2.33-8.55,5.72S1167.57,282.54,1172.47,282.54Zm-4.42,8.29H1177v-7.52a16.36,16.36,0,0,1-4.51.6,15.85,15.85,0,0,1-4.42-.6Z" transform="translate(-0.16 0.06)"/><path d="M767.15,800.75c0,3.54-1.73,5.8-4.18,5.8s-4.19-2.26-4.19-5.8S760.5,795,763,795,767.15,797.24,767.15,800.75Zm-7.41,0c0,2.89,1.33,4.93,3.23,4.93s3.21-2,3.21-4.93-1.33-4.9-3.21-4.9S759.74,797.87,759.74,800.75Zm12-7.16v16.87h-1V793.59Z" transform="translate(-0.16 0.06)"/><path d="M786.8,805c.7,0,1.41-.11,2-.21l.08.78a58.13,58.13,0,0,1-8.47.53l-.14-.89c.59,0,1.26,0,2,0v-8.45h-1.62v-.86h7.75v.86H786.8Zm-3.57.17c.85,0,1.75,0,2.62-.11v-8.32h-2.62Zm7.33-11.11h1v15.46h-1v-8.45h-2.72v-.89h2.72Zm4.2-.46v16.87h-1V793.59Z" transform="translate(-0.16 0.06)"/><path d="M806.86,800.75c0,3.54-1.73,5.8-4.18,5.8s-4.19-2.26-4.19-5.8,1.72-5.79,4.19-5.79S806.86,797.24,806.86,800.75Zm-7.41,0c0,2.89,1.33,4.93,3.23,4.93s3.21-2,3.21-4.93-1.33-4.9-3.21-4.9S799.45,797.87,799.45,800.75Zm12-7.16v16.87h-1V793.59Z" transform="translate(-0.16 0.06)"/><path d="M820.77,799.1c0,2.93,2.45,5.83,4.73,6.86l-.61.8a9.54,9.54,0,0,1-4.61-5.43,10.4,10.4,0,0,1-4.52,5.85l-.63-.82c2.18-1.1,4.65-4.31,4.65-7.26v-2.85H815.6v-.87H825v.87h-4.26Zm8-5.51v16.87h-1V793.59Z" transform="translate(-0.16 0.06)"/><path d="M832.46,805.71a77.16,77.16,0,0,0,11.23-.6l.09.77a63.18,63.18,0,0,1-11.15.71Zm9.84-7c0,2.3-1.83,3.86-4.45,3.86s-4.44-1.56-4.44-3.86,1.82-3.86,4.44-3.86S842.3,796.44,842.3,798.74Zm-7.92,0c0,1.73,1.46,3,3.47,3s3.48-1.25,3.48-3-1.46-3-3.48-3S834.38,797,834.38,798.74Zm11.51-5.15v16.89h-1V793.59Z" transform="translate(-0.16 0.06)"/><path d="M870,802.73v.86H854.78v-.86h6.52v-2.66h1v2.66Zm-3-5.17c0-.6,0-1.17,0-1.73v-.49H856.63v-.85H868v1.34a27.53,27.53,0,0,1-.45,5.61l-1-.1a23,23,0,0,0,.42-3l-10.56.52-.19-.9Zm-9.22,11.76h10.66v.86H856.82v-4.94h1Z" transform="translate(-0.16 0.06)"/><path d="M880.28,802.69a27.52,27.52,0,0,1-6.35.52h-1V795h6.38v.85H873.9v2.74h4.69v.83H873.9v2.89h0a27,27,0,0,0,6.22-.49Zm6.48,6.5V810H875.43v-5.2h1v4.35ZM882,799.33H879.4v-.85H882v-4.54h1v11.87h-1Zm4.2,6.93h-1V793.59h1Z" transform="translate(-0.16 0.06)"/><path d="M904.65,807.31v.85H889.34v-.85Zm-14.15-4c2.74-.59,6-2.58,6-5.74v-.19h-5.65v-.85h5.65v-2.45h1v2.45h5.63v.85h-5.63v.19c0,3.16,3.23,5.15,6,5.74l-.44.84c-2.43-.59-5.09-2.09-6-4.56-1,2.47-3.63,4-6.06,4.56Z" transform="translate(-0.16 0.06)"/><path d="M922,802.39v.85H906.63v-.85Zm-12.22,6.78h10.51V810H908.72v-4.89h1Zm10.41-9.35H908.8V794.2h1V799h10.33Z" transform="translate(-0.16 0.06)"/><path d="M937.62,795.46c0,4.59-2.37,8.94-7.73,11.62l-.57-.8c4.56-2.26,7-5.87,7.31-10H930v-.85Zm7.2,6.07H941.9v8.93h-1V793.59h1v7.07h2.92Z" transform="translate(-0.16 0.06)"/><path d="M961.67,807.38v.88H946.34v-.88h7.13v-3.55h-5.11v-4.94h10.31v-3.11H948.3v-.84h11.36v4.79H949.34V803h10.72v.85h-5.59v3.55Z" transform="translate(-0.16 0.06)"/><path d="M970.81,795.06v4.67h5.74v-4.67h1v11.26h-7.75V795.06Zm0,10.41h5.74v-4.9h-5.74Zm11.65-11.9v16.91h-1V793.57Z" transform="translate(-0.16 0.06)"/><path d="M996.81,801.8v1.94h2.48v3.47H989v2.17h10.84v.84H988v-3.78h10.3v-1.89H988v-.81h2.39V801.8h-4.31V801h15.24v.85Zm-8.95-5c0-1.9,2.16-3,5.81-3s5.85,1.05,5.85,3-2.18,3-5.85,3S987.86,798.67,987.86,796.75Zm1,0c0,1.35,1.85,2.16,4.79,2.16s4.83-.81,4.83-2.16-1.88-2.15-4.83-2.15S988.88,795.42,988.88,796.75Zm6.92,5h-4.43v1.94h4.43Z" transform="translate(-0.16 0.06)"/><path d="M1018.67,807.38v.88h-15.33v-.88h7.13v-3.55h-5.11v-4.94h10.31v-3.11H1005.3v-.84h11.36v4.79h-10.32V803h10.72v.85h-5.59v3.55Z" transform="translate(-0.16 0.06)"/><path d="M1031.92,805.77a46.36,46.36,0,0,0,5.18-.48l.08.77a62,62,0,0,1-11.13.72l-.17-.9c1.48,0,3.21,0,5,0v-3.48h1Zm-5.43-3.63c2.37-.76,4.42-2.75,4.42-5.28v-.09h-4.08v-.84h4.08v-2.22h1v2.22h4.2v.84h-4.2v.09c0,2.43,2.09,4.35,4.46,5.09l-.47.8a7.18,7.18,0,0,1-4.49-4,7.08,7.08,0,0,1-4.44,4.14Zm12.82-8.55v16.89h-1V793.59Z" transform="translate(-0.16 0.06)"/><path d="M1052.36,802.94a7.41,7.41,0,0,1-4.22-4.12,7.46,7.46,0,0,1-4.38,4.54l-.54-.8c2.34-.87,4.41-3.14,4.41-5.68v-1.14h-4v-.86h9v.86h-4v1.12c0,2.32,2,4.45,4.26,5.28Zm-6.69,1.77h11.14v5.73h-1v-4.88h-10.13Zm11.14-11.12V803.7h-1v-4.64H1052v-.85h3.8v-4.62Z" transform="translate(-0.16 0.06)"/><path d="M1066,806c1.69-.1,3.4-.21,5-.46l.08.78a66,66,0,0,1-10.74.67l-.19-.88c1.45,0,3.12,0,4.87-.07v-2.11c-2-.17-3.37-1.31-3.37-3.06s1.54-3.1,3.88-3.1,3.89,1.2,3.89,3.1-1.34,2.89-3.4,3.06Zm4.58-9.41h-10.16v-.85H1065v-2.17h1v2.17h4.58Zm-5.07,6.56c1.75,0,2.94-.95,2.94-2.28s-1.19-2.28-2.94-2.28-3,.93-3,2.28S1063.76,803.15,1065.53,803.15Zm10.52-1.33h-2.92v8.62h-1V793.59h1V801h2.92Z" transform="translate(-0.16 0.06)"/><path d="M1083.73,805.6c1.77-.08,3.55-.19,5.24-.4l.08.74a76.49,76.49,0,0,1-11.13.67l-.17-.9c1.52,0,3.23,0,5-.07V802h-3.62v-6.74h8.45v.87h-7.45v5h7.53V802h-3.9Zm7.45-12v16.89h-1V793.59Z" transform="translate(-0.16 0.06)"/><path d="M1108.68,793.59v16.87h-1v-9.4h-4.2c-.11,3.36-1.76,5.49-4.1,5.49s-4.1-2.26-4.1-5.8,1.69-5.79,4.1-5.79,3.91,2,4.08,5.26h4.22v-6.63Zm-6.16,7.16c0-2.88-1.29-4.9-3.15-4.9s-3.16,2-3.16,4.9,1.3,4.93,3.16,4.93S1102.52,803.62,1102.52,800.75Z" transform="translate(-0.16 0.06)"/><path d="M1117.84,798.51c0-2.31,1.76-3.87,4.25-3.87s4.3,1.56,4.3,3.87-1.77,3.86-4.3,3.86S1117.84,800.81,1117.84,798.51Zm11.24,6.65a5,5,0,0,0,3.56,4.3l-.52.77a6,6,0,0,1-3.53-3.36,6.1,6.1,0,0,1-3.13,3.5,5.45,5.45,0,0,1-3.18-3.46,6.39,6.39,0,0,1-3.47,3.32l-.52-.77c2.07-.8,3.54-2.68,3.54-4.3V804h1v1.12a4.86,4.86,0,0,0,2.65,4.2,5.37,5.37,0,0,0,2.67-4.2V804h1Zm-10.27-6.65a3.32,3.32,0,1,0,3.28-3A3.05,3.05,0,0,0,1118.81,798.51Zm12.27,4.77h-1v-9.69h1Z" transform="translate(-0.16 0.06)"/><path d="M1149.89,801.46v.85h-15.26v-.85Zm-1.33-1.46c-2.36-.4-5.28-1.79-6.29-3.84-1,2.09-3.91,3.44-6.29,3.84l-.4-.82c2.57-.36,6.18-2.11,6.18-4.5v-.92h1v.92c0,2.31,3.67,4.16,6.18,4.5Zm-1.69,3.68h1v6.52h-11.19v-6.52h1V806h9.22Zm0,3.14h-9.22v2.54h9.22Z" transform="translate(-0.16 0.06)"/><path d="M1154.43,805.11a38.2,38.2,0,0,0,8.13-.82l.15.87a39.57,39.57,0,0,1-8.28.84h-1.31V795.25h1v9.86Zm11.15-11.52v16.87h-1V793.59Z" transform="translate(-0.16 0.06)"/><path d="M1171.26,805.29a40.37,40.37,0,0,0,8-.6l.14.87a39.92,39.92,0,0,1-8.1.61H1170V795.26h7.81v.86H1171v9.17Zm13.76-3.93h-3v9.12h-1V793.59h1v6.92h3Z" transform="translate(-0.16 0.06)"/></g></svg>